<svg xmlns="http://www.w3.org/2000/svg" xmlns:xlink="http://www.w3.org/1999/xlink" width="200" zoomAndPan="magnify" viewBox="0 0 375 374.999991" height="120" preserveAspectRatio="xMidYMid meet" version="1.0"><defs><g/><clipPath id="96d5450490"><path d="M 151 131 L 275.421875 131 L 275.421875 207 L 151 207 Z M 151 131 " clip-rule="nonzero"/></clipPath><clipPath id="97ad5341fe"><path d="M 99.921875 32.125 L 262 32.125 L 262 214.375 L 99.921875 214.375 Z M 99.921875 32.125 " clip-rule="nonzero"/></clipPath></defs><g clip-path="url(#96d5450490)"><path fill="#00c2cb" d="M 241.714844 175.398438 C 247.191406 165.820312 250.324219 154.730469 250.324219 142.910156 C 250.324219 139.003906 249.980469 135.175781 249.324219 131.460938 C 246.671875 146.207031 238.832031 159.152344 227.757812 168.335938 C 221.351562 173.648438 211.8125 172.570312 206.796875 165.925781 L 197.441406 153.527344 C 195.882812 151.464844 193.449219 150.25 190.863281 150.25 L 155.203125 150.25 C 155.199219 150.25 155.191406 150.253906 155.183594 150.253906 C 152.75 150.269531 151.171875 152.835938 152.265625 155.015625 L 153.683594 157.839844 C 156.324219 163.097656 161.519531 166.589844 167.378906 167.050781 L 169.492188 167.21875 L 178.738281 167.949219 C 181.359375 168.152344 183.71875 169.601562 185.085938 171.839844 L 189.28125 178.699219 L 191.628906 182.542969 L 204.785156 204.058594 C 205.019531 204.441406 205.3125 204.777344 205.644531 205.058594 C 206.609375 205.863281 207.917969 206.199219 209.183594 205.886719 C 209.191406 205.882812 209.199219 205.882812 209.210938 205.878906 C 243.332031 197.457031 269.617188 169.15625 275.074219 133.964844 C 270.285156 152.015625 257.984375 167.011719 241.714844 175.398438 " fill-opacity="1" fill-rule="nonzero"/></g><g clip-path="url(#97ad5341fe)"><path fill="#003479" d="M 182.570312 173.378906 C 181.699219 171.949219 180.179688 171.019531 178.507812 170.886719 L 167.148438 169.992188 C 160.300781 169.453125 154.132812 165.304688 151.050781 159.164062 L 149.703125 156.488281 C 148.75 154.585938 148.726562 152.308594 149.78125 150.457031 C 150.871094 148.546875 152.832031 147.375 155.007812 147.304688 L 155.203125 147.300781 L 166.621094 147.300781 C 162.898438 141.425781 156.191406 138.121094 149.25 138.769531 L 137.386719 139.878906 C 132.304688 140.351562 127.738281 136.851562 126.804688 131.832031 C 126.109375 128.113281 125.746094 124.28125 125.746094 120.359375 C 125.746094 100.484375 135.054688 82.78125 149.550781 71.378906 C 135.191406 80.832031 124.015625 94.730469 117.984375 111.117188 C 123.417969 71.644531 157.277344 41.238281 198.246094 41.238281 C 223.601562 41.238281 246.238281 52.890625 261.09375 71.128906 C 245.304688 47.746094 218.589844 32.351562 188.269531 32.269531 C 139.734375 32.144531 100.019531 71.691406 99.945312 120.226562 C 99.921875 137.3125 104.765625 153.261719 113.160156 166.773438 C 113.339844 167.058594 113.511719 167.347656 113.691406 167.628906 L 125.453125 165.636719 C 130.703125 164.746094 135.027344 169.824219 133.242188 174.84375 C 133.191406 174.984375 133.160156 175.058594 133.160156 175.058594 C 140.730469 177.8125 139.453125 185.183594 139.453125 185.183594 C 146.136719 188.234375 143.386719 194.523438 143.386719 194.523438 C 145.75 195.503906 146.578125 197.414062 146.792969 198.039062 C 146.902344 198.355469 147.023438 198.671875 147.144531 198.988281 L 151.714844 210.71875 C 152.503906 212.738281 154.917969 214.386719 157.082031 214.386719 C 159.8125 214.386719 161.703125 211.65625 160.746094 209.097656 L 158.605469 203.402344 L 155.75 195.804688 C 155.550781 195.273438 155.914062 194.695312 156.492188 194.652344 C 156.867188 194.625 157.214844 194.871094 157.359375 195.222656 L 161.109375 204.25 L 163.886719 210.933594 C 164.839844 213.234375 167.363281 214.554688 169.757812 213.859375 C 172.625 213.019531 174.050781 209.8125 172.753906 207.121094 C 172.753906 207.121094 172.753906 207.117188 172.75 207.117188 L 165.882812 192.929688 C 165.589844 192.320312 165.992188 191.605469 166.664062 191.539062 C 167.054688 191.5 167.429688 191.703125 167.613281 192.046875 L 175.972656 207.621094 L 177.007812 209.554688 C 178.027344 211.457031 180.265625 212.449219 182.320312 211.769531 C 183.914062 211.242188 184.976562 209.910156 185.257812 208.398438 C 185.429688 207.480469 185.3125 206.496094 184.84375 205.589844 L 178.304688 192.914062 C 178.015625 192.355469 178.226562 191.640625 178.808594 191.398438 C 179.320312 191.1875 179.894531 191.40625 180.148438 191.878906 L 187.539062 205.84375 C 188.136719 206.972656 189.027344 207.847656 190.066406 208.425781 C 191.800781 209.382812 193.949219 209.519531 195.867188 208.617188 C 196.234375 208.441406 196.574219 208.230469 196.890625 208.003906 C 199.511719 206.097656 200.335938 202.4375 198.578125 199.558594 L 182.570312 173.378906 " fill-opacity="1" fill-rule="nonzero"/></g><path fill="#00c2cb" d="M 118.671875 178.675781 L 127.917969 177.140625 C 130.695312 176.679688 132.570312 174.058594 132.109375 171.28125 C 131.652344 168.507812 129.027344 166.628906 126.25 167.089844 L 117.003906 168.625 C 114.226562 169.082031 112.351562 171.707031 112.8125 174.480469 C 113.269531 177.257812 115.894531 179.132812 118.671875 178.675781 " fill-opacity="1" fill-rule="nonzero"/><path fill="#00c2cb" d="M 136.828125 181.308594 C 136.371094 178.53125 133.746094 176.65625 130.96875 177.117188 L 118.347656 179.53125 C 115.570312 179.992188 113.695312 182.613281 114.15625 185.390625 C 114.613281 188.164062 117.238281 190.042969 120.015625 189.582031 L 132.636719 187.167969 C 135.414062 186.707031 137.289062 184.082031 136.828125 181.308594 " fill-opacity="1" fill-rule="nonzero"/><path fill="#00c2cb" d="M 141.089844 191.796875 C 140.628906 189.019531 138.007812 187.144531 135.230469 187.605469 L 125.980469 189.136719 C 123.207031 189.597656 121.328125 192.222656 121.789062 194.996094 C 122.25 197.773438 124.875 199.648438 127.648438 199.1875 L 136.898438 197.65625 C 139.671875 197.195312 141.550781 194.570312 141.089844 191.796875 " fill-opacity="1" fill-rule="nonzero"/><path fill="#00c2cb" d="M 141.65625 197.4375 L 134.058594 198.644531 C 131.28125 199.105469 129.40625 201.726562 129.867188 204.503906 C 130.328125 207.277344 132.949219 209.15625 135.726562 208.695312 L 143.320312 207.488281 C 146.097656 207.027344 147.972656 204.402344 147.511719 201.628906 C 147.054688 198.851562 144.429688 196.976562 141.65625 197.4375 " fill-opacity="1" fill-rule="nonzero"/><g fill="#003479" fill-opacity="1"><g transform="translate(53.088514, 242.806023)"><g><path d="M 13.515625 -2.921875 C 13.773438 -2.921875 13.90625 -2.785156 13.90625 -2.515625 L 13.90625 -0.40625 C 13.90625 -0.132812 13.773438 0 13.515625 0 L 2.53125 0 C 2.257812 0 2.125 -0.132812 2.125 -0.40625 L 2.125 -17.484375 C 2.125 -17.742188 2.257812 -17.875 2.53125 -17.875 L 5.0625 -17.875 C 5.320312 -17.875 5.453125 -17.742188 5.453125 -17.484375 L 5.453125 -2.921875 Z M 13.515625 -2.921875 "/></g></g></g><g fill="#003479" fill-opacity="1"><g transform="translate(69.858646, 242.806023)"><g><path d="M 2.125 -0.515625 L 2.125 -17.34375 C 2.125 -17.5 2.175781 -17.625 2.28125 -17.71875 C 2.382812 -17.8125 2.507812 -17.859375 2.65625 -17.859375 L 9.234375 -17.859375 C 10.273438 -17.859375 11.253906 -17.710938 12.171875 -17.421875 C 13.097656 -17.140625 13.9375 -16.734375 14.6875 -16.203125 C 15.4375 -15.671875 16.078125 -15.035156 16.609375 -14.296875 C 17.140625 -13.566406 17.550781 -12.742188 17.84375 -11.828125 C 18.132812 -10.921875 18.28125 -9.953125 18.28125 -8.921875 C 18.28125 -7.898438 18.132812 -6.9375 17.84375 -6.03125 C 17.550781 -5.125 17.132812 -4.300781 16.59375 -3.5625 C 16.0625 -2.820312 15.421875 -2.1875 14.671875 -1.65625 C 13.929688 -1.125 13.097656 -0.710938 12.171875 -0.421875 C 11.242188 -0.140625 10.25 0 9.1875 0 L 2.671875 0 C 2.515625 0 2.382812 -0.046875 2.28125 -0.140625 C 2.175781 -0.242188 2.125 -0.367188 2.125 -0.515625 Z M 5.453125 -3.15625 L 9.171875 -3.15625 C 10.003906 -3.15625 10.773438 -3.300781 11.484375 -3.59375 C 12.191406 -3.894531 12.800781 -4.304688 13.3125 -4.828125 C 13.832031 -5.359375 14.234375 -5.972656 14.515625 -6.671875 C 14.804688 -7.367188 14.953125 -8.117188 14.953125 -8.921875 C 14.953125 -9.742188 14.804688 -10.507812 14.515625 -11.21875 C 14.234375 -11.925781 13.835938 -12.546875 13.328125 -13.078125 C 12.816406 -13.609375 12.210938 -14.019531 11.515625 -14.3125 C 10.816406 -14.601562 10.050781 -14.75 9.21875 -14.75 L 5.453125 -14.75 Z M 5.453125 -3.15625 "/></g></g></g><g fill="#003479" fill-opacity="1"><g transform="translate(91.600332, 242.806023)"><g><path d="M 21.265625 -0.53125 C 21.285156 -0.34375 21.25 -0.203125 21.15625 -0.109375 C 21.0625 -0.0234375 20.925781 0.015625 20.75 0.015625 L 18.46875 0.015625 C 18.300781 0.015625 18.171875 -0.0195312 18.078125 -0.09375 C 17.992188 -0.175781 17.941406 -0.3125 17.921875 -0.5 L 17.078125 -9.21875 L 11.78125 -0.21875 C 11.675781 -0.0507812 11.585938 0.0664062 11.515625 0.140625 C 11.453125 0.222656 11.347656 0.265625 11.203125 0.265625 L 11.1875 0.265625 C 11.039062 0.265625 10.929688 0.222656 10.859375 0.140625 C 10.796875 0.0664062 10.710938 -0.0507812 10.609375 -0.21875 L 5.3125 -9.203125 L 4.453125 -0.5 C 4.429688 -0.3125 4.375 -0.175781 4.28125 -0.09375 C 4.195312 -0.0195312 4.078125 0.015625 3.921875 0.015625 L 1.640625 0.015625 C 1.460938 0.015625 1.320312 -0.0234375 1.21875 -0.109375 C 1.125 -0.203125 1.085938 -0.34375 1.109375 -0.53125 L 2.84375 -17.6875 C 2.863281 -17.976562 3.015625 -18.125 3.296875 -18.125 L 3.34375 -18.125 C 3.5 -18.125 3.601562 -18.085938 3.65625 -18.015625 C 3.707031 -17.941406 3.773438 -17.84375 3.859375 -17.71875 L 11.1875 -5.265625 L 18.53125 -17.71875 C 18.601562 -17.84375 18.664062 -17.941406 18.71875 -18.015625 C 18.78125 -18.085938 18.882812 -18.125 19.03125 -18.125 L 19.078125 -18.125 C 19.347656 -18.125 19.503906 -17.976562 19.546875 -17.6875 Z M 21.265625 -0.53125 "/></g></g></g><g fill="#003479" fill-opacity="1"><g transform="translate(116.374315, 242.806023)"><g/></g></g><g fill="#003479" fill-opacity="1"><g transform="translate(126.351164, 242.806023)"><g><path d="M 13.515625 -2.921875 C 13.773438 -2.921875 13.90625 -2.785156 13.90625 -2.515625 L 13.90625 -0.40625 C 13.90625 -0.132812 13.773438 0 13.515625 0 L 2.53125 0 C 2.257812 0 2.125 -0.132812 2.125 -0.40625 L 2.125 -17.484375 C 2.125 -17.742188 2.257812 -17.875 2.53125 -17.875 L 5.0625 -17.875 C 5.320312 -17.875 5.453125 -17.742188 5.453125 -17.484375 L 5.453125 -2.921875 Z M 13.515625 -2.921875 "/></g></g></g><g fill="#003479" fill-opacity="1"><g transform="translate(143.121295, 242.806023)"><g><path d="M 15.0625 -3.15625 C 15.28125 -3.15625 15.453125 -3.09375 15.578125 -2.96875 C 15.710938 -2.851562 15.78125 -2.695312 15.78125 -2.5 L 15.78125 -0.515625 C 15.78125 -0.359375 15.726562 -0.234375 15.625 -0.140625 C 15.53125 -0.046875 15.398438 0 15.234375 0 L 2.65625 0 C 2.300781 0 2.125 -0.171875 2.125 -0.515625 L 2.125 -17.328125 C 2.125 -17.679688 2.300781 -17.859375 2.65625 -17.859375 L 14.984375 -17.859375 C 15.160156 -17.859375 15.296875 -17.8125 15.390625 -17.71875 C 15.484375 -17.625 15.53125 -17.5 15.53125 -17.34375 L 15.53125 -15.25 C 15.53125 -14.882812 15.347656 -14.703125 14.984375 -14.703125 L 5.453125 -14.703125 L 5.453125 -9.78125 L 12.921875 -9.78125 C 13.117188 -9.78125 13.269531 -9.734375 13.375 -9.640625 C 13.488281 -9.546875 13.546875 -9.410156 13.546875 -9.234375 L 13.546875 -7.265625 C 13.546875 -7.109375 13.488281 -6.976562 13.375 -6.875 C 13.269531 -6.78125 13.117188 -6.734375 12.921875 -6.734375 L 5.453125 -6.734375 L 5.453125 -3.15625 Z M 15.0625 -3.15625 "/></g></g></g><g fill="#003479" fill-opacity="1"><g transform="translate(162.500616, 242.806023)"><g><path d="M 17.296875 -0.578125 C 17.367188 -0.398438 17.367188 -0.253906 17.296875 -0.140625 C 17.234375 -0.0234375 17.101562 0.03125 16.90625 0.03125 L 14.375 0.03125 C 14.238281 0.03125 14.117188 -0.015625 14.015625 -0.109375 C 13.910156 -0.203125 13.832031 -0.3125 13.78125 -0.4375 L 13.0625 -2.171875 L 4.859375 -2.171875 L 4.140625 -0.453125 C 4.085938 -0.328125 4.007812 -0.21875 3.90625 -0.125 C 3.800781 -0.03125 3.675781 0.015625 3.53125 0.015625 L 1.015625 0.015625 C 0.816406 0.015625 0.679688 -0.0351562 0.609375 -0.140625 C 0.535156 -0.253906 0.535156 -0.40625 0.609375 -0.59375 L 8.21875 -17.640625 C 8.28125 -17.773438 8.367188 -17.882812 8.484375 -17.96875 C 8.609375 -18.050781 8.734375 -18.09375 8.859375 -18.09375 L 9.015625 -18.09375 C 9.160156 -18.09375 9.285156 -18.046875 9.390625 -17.953125 C 9.503906 -17.867188 9.597656 -17.757812 9.671875 -17.625 Z M 6.015625 -5.015625 L 11.890625 -5.015625 L 8.953125 -12.140625 Z M 6.015625 -5.015625 "/></g></g></g><g fill="#003479" fill-opacity="1"><g transform="translate(182.80843, 242.806023)"><g><path d="M 14.34375 -17.859375 C 14.707031 -17.859375 14.890625 -17.6875 14.890625 -17.34375 L 14.890625 -15.234375 C 14.890625 -14.878906 14.707031 -14.703125 14.34375 -14.703125 L 5.453125 -14.703125 L 5.453125 -8.796875 L 12.5625 -8.796875 C 12.757812 -8.796875 12.910156 -8.742188 13.015625 -8.640625 C 13.128906 -8.546875 13.1875 -8.410156 13.1875 -8.234375 L 13.1875 -6.28125 C 13.1875 -6.113281 13.128906 -5.976562 13.015625 -5.875 C 12.910156 -5.78125 12.757812 -5.734375 12.5625 -5.734375 L 5.453125 -5.734375 L 5.453125 -0.515625 C 5.453125 -0.171875 5.285156 0 4.953125 0 L 2.65625 0 C 2.300781 0 2.125 -0.171875 2.125 -0.515625 L 2.125 -17.34375 C 2.125 -17.6875 2.300781 -17.859375 2.65625 -17.859375 Z M 14.34375 -17.859375 "/></g></g></g><g fill="#003479" fill-opacity="1"><g transform="translate(201.024196, 242.806023)"><g><path d="M 13.515625 -2.921875 C 13.773438 -2.921875 13.90625 -2.785156 13.90625 -2.515625 L 13.90625 -0.40625 C 13.90625 -0.132812 13.773438 0 13.515625 0 L 2.53125 0 C 2.257812 0 2.125 -0.132812 2.125 -0.40625 L 2.125 -17.484375 C 2.125 -17.742188 2.257812 -17.875 2.53125 -17.875 L 5.0625 -17.875 C 5.320312 -17.875 5.453125 -17.742188 5.453125 -17.484375 L 5.453125 -2.921875 Z M 13.515625 -2.921875 "/></g></g></g><g fill="#003479" fill-opacity="1"><g transform="translate(217.794332, 242.806023)"><g><path d="M 15.0625 -3.15625 C 15.28125 -3.15625 15.453125 -3.09375 15.578125 -2.96875 C 15.710938 -2.851562 15.78125 -2.695312 15.78125 -2.5 L 15.78125 -0.515625 C 15.78125 -0.359375 15.726562 -0.234375 15.625 -0.140625 C 15.53125 -0.046875 15.398438 0 15.234375 0 L 2.65625 0 C 2.300781 0 2.125 -0.171875 2.125 -0.515625 L 2.125 -17.328125 C 2.125 -17.679688 2.300781 -17.859375 2.65625 -17.859375 L 14.984375 -17.859375 C 15.160156 -17.859375 15.296875 -17.8125 15.390625 -17.71875 C 15.484375 -17.625 15.53125 -17.5 15.53125 -17.34375 L 15.53125 -15.25 C 15.53125 -14.882812 15.347656 -14.703125 14.984375 -14.703125 L 5.453125 -14.703125 L 5.453125 -9.78125 L 12.921875 -9.78125 C 13.117188 -9.78125 13.269531 -9.734375 13.375 -9.640625 C 13.488281 -9.546875 13.546875 -9.410156 13.546875 -9.234375 L 13.546875 -7.265625 C 13.546875 -7.109375 13.488281 -6.976562 13.375 -6.875 C 13.269531 -6.78125 13.117188 -6.734375 12.921875 -6.734375 L 5.453125 -6.734375 L 5.453125 -3.15625 Z M 15.0625 -3.15625 "/></g></g></g><g fill="#003479" fill-opacity="1"><g transform="translate(237.173653, 242.806023)"><g><path d="M 0.6875 -15.484375 L 0.6875 -17.34375 C 0.6875 -17.6875 0.863281 -17.859375 1.21875 -17.859375 L 13.453125 -17.859375 C 13.609375 -17.859375 13.726562 -17.8125 13.8125 -17.71875 C 13.90625 -17.625 13.953125 -17.5 13.953125 -17.34375 L 13.953125 -15.484375 C 13.953125 -15.128906 13.785156 -14.953125 13.453125 -14.953125 L 8.96875 -14.953125 L 8.96875 -0.5 C 8.96875 -0.15625 8.789062 0.015625 8.4375 0.015625 L 6.171875 0.015625 C 5.828125 0.015625 5.65625 -0.15625 5.65625 -0.5 L 5.65625 -14.953125 L 1.21875 -14.953125 C 1.050781 -14.953125 0.921875 -14.992188 0.828125 -15.078125 C 0.734375 -15.171875 0.6875 -15.304688 0.6875 -15.484375 Z M 0.6875 -15.484375 "/></g></g></g><g fill="#003479" fill-opacity="1"><g transform="translate(254.225852, 242.806023)"><g><path d="M 0.6875 -15.484375 L 0.6875 -17.34375 C 0.6875 -17.6875 0.863281 -17.859375 1.21875 -17.859375 L 13.453125 -17.859375 C 13.609375 -17.859375 13.726562 -17.8125 13.8125 -17.71875 C 13.90625 -17.625 13.953125 -17.5 13.953125 -17.34375 L 13.953125 -15.484375 C 13.953125 -15.128906 13.785156 -14.953125 13.453125 -14.953125 L 8.96875 -14.953125 L 8.96875 -0.5 C 8.96875 -0.15625 8.789062 0.015625 8.4375 0.015625 L 6.171875 0.015625 C 5.828125 0.015625 5.65625 -0.15625 5.65625 -0.5 L 5.65625 -14.953125 L 1.21875 -14.953125 C 1.050781 -14.953125 0.921875 -14.992188 0.828125 -15.078125 C 0.734375 -15.171875 0.6875 -15.304688 0.6875 -15.484375 Z M 0.6875 -15.484375 "/></g></g></g><g fill="#003479" fill-opacity="1"><g transform="translate(271.278051, 242.806023)"><g><path d="M 5.4375 -17.484375 L 5.4375 -0.375 C 5.4375 -0.113281 5.304688 0.015625 5.046875 0.015625 L 2.515625 0.015625 C 2.253906 0.015625 2.125 -0.113281 2.125 -0.375 L 2.125 -17.484375 C 2.125 -17.742188 2.253906 -17.875 2.515625 -17.875 L 5.046875 -17.875 C 5.304688 -17.875 5.4375 -17.742188 5.4375 -17.484375 Z M 5.4375 -17.484375 "/></g></g></g><g fill="#003479" fill-opacity="1"><g transform="translate(281.254896, 242.806023)"><g><path d="M 17.640625 -17.875 C 17.898438 -17.875 18.03125 -17.75 18.03125 -17.5 L 18.03125 -0.3125 C 18.03125 -0.144531 17.984375 -0.015625 17.890625 0.078125 C 17.804688 0.179688 17.703125 0.234375 17.578125 0.234375 L 17.546875 0.234375 C 17.398438 0.234375 17.273438 0.1875 17.171875 0.09375 C 17.078125 0.0078125 16.960938 -0.0820312 16.828125 -0.1875 L 5.453125 -10.984375 L 5.453125 -0.375 C 5.453125 -0.113281 5.320312 0.015625 5.0625 0.015625 L 2.53125 0.015625 C 2.257812 0.015625 2.125 -0.113281 2.125 -0.375 L 2.125 -17.578125 C 2.125 -17.722656 2.164062 -17.84375 2.25 -17.9375 C 2.332031 -18.039062 2.4375 -18.09375 2.5625 -18.09375 L 2.609375 -18.09375 C 2.734375 -18.09375 2.84375 -18.046875 2.9375 -17.953125 C 3.03125 -17.867188 3.140625 -17.773438 3.265625 -17.671875 L 14.71875 -6.828125 L 14.71875 -17.5 C 14.71875 -17.75 14.847656 -17.875 15.109375 -17.875 Z M 17.640625 -17.875 "/></g></g></g><g fill="#003479" fill-opacity="1"><g transform="translate(303.819301, 242.806023)"><g><path d="M 16.15625 -9.09375 C 16.414062 -9.09375 16.546875 -8.957031 16.546875 -8.6875 L 16.546875 -1.96875 C 16.546875 -1.875 16.519531 -1.769531 16.46875 -1.65625 C 16.414062 -1.550781 16.347656 -1.46875 16.265625 -1.40625 C 15.921875 -1.164062 15.515625 -0.941406 15.046875 -0.734375 C 14.585938 -0.535156 14.097656 -0.359375 13.578125 -0.203125 C 13.054688 -0.046875 12.523438 0.0703125 11.984375 0.15625 C 11.441406 0.238281 10.921875 0.28125 10.421875 0.28125 C 9.378906 0.28125 8.382812 0.128906 7.4375 -0.171875 C 6.5 -0.472656 5.640625 -0.898438 4.859375 -1.453125 C 4.078125 -2.015625 3.398438 -2.675781 2.828125 -3.4375 C 2.265625 -4.195312 1.828125 -5.039062 1.515625 -5.96875 C 1.210938 -6.894531 1.0625 -7.878906 1.0625 -8.921875 C 1.0625 -9.953125 1.210938 -10.929688 1.515625 -11.859375 C 1.828125 -12.796875 2.265625 -13.644531 2.828125 -14.40625 C 3.398438 -15.164062 4.070312 -15.820312 4.84375 -16.375 C 5.625 -16.9375 6.484375 -17.367188 7.421875 -17.671875 C 8.367188 -17.972656 9.363281 -18.125 10.40625 -18.125 C 11.007812 -18.125 11.640625 -18.054688 12.296875 -17.921875 C 12.960938 -17.796875 13.609375 -17.597656 14.234375 -17.328125 C 14.859375 -17.054688 15.410156 -16.71875 15.890625 -16.3125 C 16.003906 -16.21875 16.070312 -16.097656 16.09375 -15.953125 C 16.113281 -15.816406 16.085938 -15.695312 16.015625 -15.59375 L 14.71875 -13.625 C 14.632812 -13.5 14.519531 -13.429688 14.375 -13.421875 C 14.238281 -13.410156 14.113281 -13.457031 14 -13.5625 C 13.644531 -13.863281 13.257812 -14.109375 12.84375 -14.296875 C 12.4375 -14.484375 12.019531 -14.617188 11.59375 -14.703125 C 11.175781 -14.796875 10.785156 -14.84375 10.421875 -14.84375 C 9.566406 -14.84375 8.773438 -14.691406 8.046875 -14.390625 C 7.316406 -14.085938 6.675781 -13.664062 6.125 -13.125 C 5.582031 -12.59375 5.15625 -11.96875 4.84375 -11.25 C 4.539062 -10.53125 4.390625 -9.753906 4.390625 -8.921875 C 4.390625 -8.085938 4.535156 -7.304688 4.828125 -6.578125 C 5.128906 -5.847656 5.546875 -5.207031 6.078125 -4.65625 C 6.617188 -4.101562 7.253906 -3.664062 7.984375 -3.34375 C 8.722656 -3.03125 9.535156 -2.875 10.421875 -2.875 C 10.722656 -2.875 11.054688 -2.910156 11.421875 -2.984375 C 11.796875 -3.066406 12.15625 -3.175781 12.5 -3.3125 C 12.851562 -3.457031 13.144531 -3.613281 13.375 -3.78125 L 13.375 -6.3125 L 10.328125 -6.3125 C 10.078125 -6.3125 9.953125 -6.441406 9.953125 -6.703125 L 9.953125 -8.6875 C 9.953125 -8.957031 10.078125 -9.09375 10.328125 -9.09375 Z M 16.15625 -9.09375 "/></g></g></g></svg>